<?xml version="1.0" standalone="no"?>
<!DOCTYPE svg PUBLIC "-//W3C//DTD SVG 20010904//EN"
 "http://www.w3.org/TR/2001/REC-SVG-20010904/DTD/svg10.dtd">
<svg version="1.0" xmlns="http://www.w3.org/2000/svg"
 width="300.000000pt" height="300.000000pt" viewBox="0 0 300.000000 300.000000"
 preserveAspectRatio="xMidYMid meet">
<metadata>
Created by potrace 1.11, written by Peter Selinger 2001-2013
</metadata>
<g transform="translate(0.000000,300.000000) scale(0.100000,-0.100000)"
fill="#000000" stroke="none">
<path d="M1813 2970 c-6 -22 -18 -26 -28 -10 -4 6 -14 10 -23 9 -10 -1 -19 0
-22 1 -22 8 -47 5 -43 -7 7 -17 -6 -17 -26 1 -10 9 -29 12 -49 9 -29 -5 -33
-9 -29 -29 6 -31 -11 -57 -19 -29 -5 19 -64 62 -64 47 0 -14 -89 -52 -95 -41
-13 20 -32 -11 -38 -63 -4 -28 -10 -55 -14 -59 -9 -9 -68 -10 -181 -3 -64 4
-91 2 -117 -10 -18 -9 -36 -16 -41 -16 -4 0 -15 -6 -23 -14 -9 -7 -29 -18 -46
-24 -25 -9 -26 -11 -8 -11 12 -1 24 -5 27 -10 8 -13 -18 -21 -34 -11 -16 10
-30 4 -30 -11 0 -6 9 -7 20 -4 19 6 20 3 14 -22 -9 -37 -13 -41 -28 -23 -11
15 -50 40 -62 40 -3 0 -4 -10 -3 -22 2 -27 -7 -53 -33 -90 -10 -14 -18 -33
-18 -42 0 -9 -4 -16 -10 -16 -5 0 -10 -7 -10 -15 0 -8 -5 -15 -11 -15 -6 0 -9
-6 -6 -14 3 -8 -3 -26 -14 -39 -10 -14 -19 -34 -19 -45 0 -12 -5 -24 -11 -27
-6 -4 -8 -13 -5 -21 3 -8 0 -17 -7 -20 -8 -3 -12 -16 -9 -33 3 -22 -1 -31 -15
-35 -21 -7 -42 -69 -43 -126 -2 -114 1 -107 -37 -113 -20 -4 -43 -13 -53 -22
-12 -11 -20 -13 -25 -6 -11 19 -40 12 -88 -20 -25 -17 -70 -42 -99 -57 -63
-33 -89 -66 -95 -124 -5 -42 -4 -45 36 -72 33 -23 48 -28 77 -23 20 3 42 14
50 24 9 13 13 14 14 4 0 -8 7 -11 20 -8 14 3 20 0 20 -10 0 -13 3 -13 15 -3
15 12 16 11 19 -12 0 -7 13 -14 29 -16 36 -4 24 -22 -15 -22 -25 0 -28 -2 -19
-14 16 -18 -13 -36 -58 -36 -17 0 -31 -4 -31 -10 0 -5 -10 -10 -22 -10 -13 -1
-34 -7 -47 -14 -23 -13 -23 -14 -5 -25 17 -11 16 -12 -8 -6 -16 3 -28 1 -28
-5 0 -5 -11 -10 -25 -10 -16 0 -25 -6 -25 -15 0 -8 -8 -15 -18 -15 -10 0 -40
-21 -66 -46 -52 -52 -112 -87 -139 -80 -16 4 -17 -33 -17 -675 l0 -679 1500 0
1500 0 0 85 c0 47 -4 85 -9 85 -11 0 -19 35 -26 115 -5 69 -16 104 -76 260
-30 77 -43 128 -45 168 -1 32 -9 68 -16 80 -25 39 -46 102 -49 147 -2 25 -9
54 -16 66 -12 19 -20 69 -38 234 -8 76 -15 117 -31 175 -7 28 -16 74 -19 104
-4 30 -10 64 -14 75 -4 12 -9 41 -10 66 -1 24 -11 64 -22 89 -10 24 -19 49
-19 55 0 6 -12 34 -25 61 -14 28 -25 61 -25 74 0 13 -11 32 -25 43 -15 11 -25
30 -25 44 0 15 -12 37 -28 52 -55 52 -52 57 66 116 59 29 123 63 142 75 19 11
42 21 50 21 8 0 24 13 35 29 10 17 30 34 42 40 13 6 23 15 23 21 0 5 8 10 18
10 21 0 56 73 47 100 -3 10 -17 26 -31 35 -21 13 -31 15 -53 6 -77 -32 -365
-12 -428 30 -65 44 -101 73 -160 130 -34 32 -67 59 -72 59 -5 0 -18 17 -28 38
-14 26 -27 38 -46 40 -15 2 -27 7 -27 11 0 4 -16 5 -35 3 -21 -3 -35 -10 -35
-18 0 -8 -4 -14 -8 -14 -9 0 -32 58 -32 81 0 9 -11 25 -25 37 -14 12 -25 26
-25 31 0 17 -39 19 -43 2 -3 -11 -5 -9 -6 7 -1 28 -31 30 -38 2z"/>
<path d="M1965 2870 c-3 -5 -1 -10 4 -10 6 0 11 5 11 10 0 6 -2 10 -4 10 -3 0
-8 -4 -11 -10z"/>
</g>
</svg>
